<svg width="33" height="10" viewBox="0 0 33 10" fill="none" xmlns="http://www.w3.org/2000/svg">
<path fill-rule="evenodd" clip-rule="evenodd" d="M5.00444 7.5L2.95956 8.5741C2.59273 8.76679 2.16416 8.45525 2.23427 8.04685L2.62469 5.77254L0.971244 4.16226C0.674263 3.87304 0.838006 3.36881 1.24825 3.30925L3.53367 2.97746L4.55615 0.907529C4.73961 0.536116 5.26926 0.536117 5.45273 0.907529L6.4752 2.97746L8.76062 3.30925C9.17087 3.36881 9.33461 3.87304 9.03763 4.16226L7.38419 5.77254L7.77461 8.04685C7.84472 8.45525 7.41615 8.76679 7.04931 8.5741L5.00444 7.5Z" fill="#FFBA49"/>
<path fill-rule="evenodd" clip-rule="evenodd" d="M16.0142 7.5L13.9693 8.5741C13.6025 8.76679 13.1739 8.45525 13.244 8.04685L13.6345 5.77254L11.981 4.16226C11.684 3.87304 11.8478 3.36881 12.258 3.30925L14.5434 2.97746L15.5659 0.907529C15.7494 0.536116 16.279 0.536117 16.4625 0.90753L17.485 2.97746L19.7704 3.30925C20.1806 3.36881 20.3444 3.87304 20.0474 4.16226L18.394 5.77254L18.7844 8.04685C18.8545 8.45525 18.4259 8.76679 18.0591 8.5741L16.0142 7.5Z" fill="#FFBA49"/>
<path fill-rule="evenodd" clip-rule="evenodd" d="M27.024 7.5L24.9791 8.5741C24.6123 8.76679 24.1837 8.45525 24.2538 8.04685L24.6442 5.77254L22.9908 4.16226C22.6938 3.87304 22.8576 3.36881 23.2678 3.30925L25.5532 2.97746L26.5757 0.907529C26.7592 0.536116 27.2888 0.536117 27.4723 0.90753L28.4948 2.97746L30.7802 3.30925C31.1904 3.36881 31.3542 3.87304 31.0572 4.16226L29.4037 5.77254L29.7942 8.04685C29.8643 8.45525 29.4357 8.76679 29.0689 8.5741L27.024 7.5Z" fill="#FFBA49"/>
</svg>
