<svg width="20" height="20" viewBox="0 0 20 20" fill="none" xmlns="http://www.w3.org/2000/svg">
<g clip-path="url(#clip0_50_779)">
<path d="M19.2734 0.960856L15.2109 0.0233564C14.7695 -0.0782061 14.3163 0.152263 14.1367 0.566325L12.2616 4.94132C12.0976 5.32413 12.207 5.77335 12.5312 6.03507L14.8984 7.97257C13.4921 10.9687 11.0351 13.4608 7.97649 14.8944L6.03899 12.5273C5.77336 12.203 5.32805 12.0937 4.94524 12.2577L0.570232 14.1327C0.152263 14.3163 -0.0782065 14.7694 0.0233561 15.2108L0.960857 19.2733C1.05851 19.6952 1.43351 19.9999 1.87492 19.9999C11.8788 19.9999 19.9999 11.8944 19.9999 1.87492C19.9999 1.43742 19.6992 1.05851 19.2734 0.960856Z" fill="#F89300"/>
</g>
<defs>
<clipPath id="clip0_50_779">
<rect width="20" height="20" fill="white"/>
</clipPath>
</defs>
</svg>
