<svg width="20" height="20" viewBox="0 0 20 20" fill="none" xmlns="http://www.w3.org/2000/svg">
<path d="M20 3.83333C19.25 4.16666 18.5 4.41666 17.6667 4.5C18.5 4 19.1667 3.16666 19.5 2.25C18.6667 2.75 17.8333 3.08333 16.9167 3.25C16.1667 2.41666 15.0833 1.91666 13.9167 1.91666C11.6667 1.91666 9.83333 3.75 9.83333 6C9.83333 6.33333 9.83333 6.66666 9.91667 6.91666C6.41667 6.75 3.41667 5.08333 1.41667 2.58333C1 3.25 0.833333 3.91666 0.833333 4.66666C0.833333 6.08333 1.58333 7.33333 2.66667 8.08333C2 8.08333 1.33333 7.91667 0.833333 7.58333C0.833333 7.58333 0.833333 7.58333 0.833333 7.66666C0.833333 9.66666 2.25 11.3333 4.08333 11.6667C3.75 11.75 3.41667 11.8333 3 11.8333C2.75 11.8333 2.5 11.8333 2.25 11.75C2.75 13.4167 4.25 14.5833 6.08333 14.5833C4.66667 15.6667 2.91667 16.3333 1 16.3333C0.666667 16.3333 0.333333 16.3333 0 16.25C1.83333 17.4167 4 18.0833 6.25 18.0833C13.8333 18.0833 17.9167 11.8333 17.9167 6.41666C17.9167 6.25 17.9167 6.08333 17.9167 5.91666C18.75 5.33333 19.4167 4.58333 20 3.83333Z" fill="#3EBAF2"/>
</svg>
