<svg width="29" height="38" viewBox="0 0 29 38" fill="none" xmlns="http://www.w3.org/2000/svg">
<path d="M27.9969 28.5095C27.4405 29.8418 26.7571 31.1175 25.9562 32.3188C24.6309 34.3438 22.7634 36.848 20.4459 36.8705C18.3894 36.8908 17.8606 35.5318 15.0684 35.5475C12.2761 35.5633 11.6934 36.8975 9.6369 36.875C7.32165 36.8548 5.5509 34.5845 4.22565 32.5663C0.519896 26.9255 0.130646 20.3038 2.42565 16.7848C3.11616 15.6359 4.07776 14.6738 5.22626 13.9826C6.37476 13.2915 7.67517 12.8924 9.01365 12.8203C11.4661 12.8203 13.0096 14.1703 15.0391 14.1703C17.0079 14.1703 18.2071 12.8203 21.0444 12.8203C22.223 12.8738 23.3752 13.1869 24.4187 13.7372C25.4623 14.2876 26.3714 15.0616 27.0812 16.004C25.9272 16.6428 24.9803 17.5987 24.3525 18.7587C23.7247 19.9187 23.4423 21.2342 23.5386 22.5497C23.6349 23.8652 24.106 25.1255 24.8961 26.1817C25.6861 27.2378 26.7622 28.0456 27.9969 28.5095V28.5095Z" stroke="white" stroke-width="2" stroke-linecap="round" stroke-linejoin="round"/>
<path d="M20.3469 8.075C21.0406 7.23501 21.5597 6.26503 21.8738 5.22188C22.1879 4.17873 22.2907 3.08338 22.1761 2C19.9489 2.26381 17.9047 3.36308 16.4566 5.07575C15.7458 5.87616 15.2119 6.81754 14.8897 7.83838C14.5675 8.85923 14.4643 9.93656 14.5869 11C15.7045 10.9738 16.8021 10.6974 17.7989 10.1913C18.7957 9.68508 19.6663 8.96194 20.3469 8.075V8.075Z" stroke="white" stroke-width="2"/>
</svg>
