<svg width="25" height="12" viewBox="0 0 25 12" fill="none" xmlns="http://www.w3.org/2000/svg">
<path opacity="0.35" d="M2.66699 0.833344H19.333C20.5296 0.833344 21.5 1.80372 21.5 3.00034V9.00034C21.4998 10.1968 20.5295 11.1664 19.333 11.1664H2.66699C1.47048 11.1664 0.500176 10.1968 0.5 9.00034V3.00034L0.510742 2.77866C0.621596 1.686 1.54509 0.833344 2.66699 0.833344Z" stroke="white"/>
<path opacity="0.4" d="M23 4V8C23.8047 7.66122 24.328 6.87313 24.328 6C24.328 5.12687 23.8047 4.33878 23 4Z" fill="white"/>
<path d="M2 3.66668C2 2.9303 2.59695 2.33334 3.33333 2.33334H18.6667C19.403 2.33334 20 2.9303 20 3.66668V8.33334C20 9.06972 19.403 9.66668 18.6667 9.66668H3.33333C2.59695 9.66668 2 9.06972 2 8.33334V3.66668Z" fill="white"/>
</svg>
