<svg width="24" height="24" viewBox="0 0 24 24" fill="none" xmlns="http://www.w3.org/2000/svg">
<path d="M6.25391 1.07617C6.79562 0.935264 7.36976 0.991412 7.87402 1.23438L8.05859 1.33301C8.47636 1.58209 8.80891 1.95575 9.00781 2.40332L10.8359 6.52051L10.9072 6.70215C11.0354 7.06967 11.0714 7.46318 11.0107 7.84766L10.9727 8.03906C10.8491 8.54613 10.5608 8.99808 10.1533 9.32422H10.1523L8.84277 10.3711C10.0192 12.1459 11.5397 13.6662 13.3145 14.8428L14.3623 13.5342L14.3633 13.5312L14.4922 13.3848C14.8045 13.0561 15.2062 12.8234 15.6494 12.7158L15.8398 12.6777C16.2878 12.6074 16.748 12.6667 17.165 12.8516H17.166L21.2832 14.6807L21.4707 14.7734C21.896 15.0095 22.2395 15.3723 22.4521 15.8135L22.5342 16.0059C22.7058 16.4611 22.7338 16.9604 22.6104 17.4346L21.707 20.9131V20.9141C21.5607 21.4754 21.2136 21.9635 20.7314 22.2861C20.249 22.6087 19.6647 22.7433 19.0898 22.6641H19.0869C14.6655 22.0432 10.5563 20.0441 7.34082 16.957L7.03223 16.6543C3.77315 13.3952 1.66341 9.16385 1.02246 4.59961V4.5957C0.943718 4.02111 1.07722 3.43732 1.39941 2.95508L1.52832 2.78125C1.84527 2.38948 2.28042 2.10727 2.77148 1.97852L2.77344 1.97754L6.25391 1.07715V1.07617Z" stroke="#452E4F" stroke-width="2" stroke-linecap="round" stroke-linejoin="round"/>
</svg>
