<svg width="18" height="18" viewBox="0 0 18 18" fill="none" xmlns="http://www.w3.org/2000/svg">
<path d="M1 1H3.83333V12.3333H13.75L16.5833 5.25H3.83333" stroke="#151A6A" stroke-width="2" stroke-linecap="round" stroke-linejoin="round"/>
<path d="M4.54167 17.2917C5.32407 17.2917 5.95833 16.6574 5.95833 15.875C5.95833 15.0926 5.32407 14.4583 4.54167 14.4583C3.75926 14.4583 3.125 15.0926 3.125 15.875C3.125 16.6574 3.75926 17.2917 4.54167 17.2917Z" fill="#151A6A"/>
<path d="M14.4584 17.2917C15.2408 17.2917 15.875 16.6574 15.875 15.875C15.875 15.0926 15.2408 14.4583 14.4584 14.4583C13.676 14.4583 13.0417 15.0926 13.0417 15.875C13.0417 16.6574 13.676 17.2917 14.4584 17.2917Z" fill="#151A6A"/>
</svg>
