<svg width="56" height="56" viewBox="0 0 56 56" fill="none" xmlns="http://www.w3.org/2000/svg">
<rect width="56" height="56" rx="28" fill="white"/>
<path d="M17.4494 18.6323C19.0038 18.6323 20.2639 17.3715 20.2639 15.8162C20.2639 14.2608 19.0038 13 17.4494 13C15.8949 13 14.6348 14.2608 14.6348 15.8162C14.6348 17.3715 15.8949 18.6323 17.4494 18.6323Z" fill="#E94444"/>
<path d="M20.2639 15.8162C20.2639 17.375 19.0009 18.6323 17.4494 18.6323C16.5326 18.6323 15.7119 18.1897 15.199 17.5097C15.4619 17.5867 15.7376 17.6316 16.0261 17.6316C17.584 17.6316 18.8406 16.3679 18.8406 14.8154C18.8406 14.1804 18.6291 13.5902 18.2764 13.1219C19.4241 13.4747 20.2639 14.546 20.2639 15.8162Z" fill="#D83131"/>
<path d="M39.2414 16.7977C39.5427 16.3935 39.2542 15.8162 38.7541 15.8162H28.4704H18.1867C17.6802 15.8162 17.3981 16.3935 17.6994 16.7977L26.5855 28.6076C27.0535 29.2299 27.31 29.9932 27.31 30.7694V40.2123C27.31 42.1881 25.9444 43.9265 24.0146 44.3371C23.9569 44.3499 23.9056 44.3627 23.8479 44.3692C23.8479 44.3692 22.3733 44.5809 22.0976 45.8446H28.4768H34.8561C34.574 44.5809 33.1058 44.3692 33.1058 44.3692C33.0545 44.3627 33.0032 44.3499 32.9583 44.3371C31.0157 43.9265 29.6437 42.1945 29.6437 40.2058V30.7694C29.6437 29.9868 29.9001 29.2299 30.3682 28.6076L39.2414 16.7977Z" fill="#DFF6FD"/>
<path d="M39.2414 16.7977C39.5427 16.3935 39.2542 15.8162 38.7541 15.8162H28.4704H18.1867C17.6802 15.8162 17.3981 16.3935 17.6994 16.7977L18.7509 18.1897L19.1804 18.504L26.6881 28.4601C26.9189 28.768 27.1112 29.0631 27.233 29.4223C27.2587 29.4993 27.1625 29.7623 27.1817 29.8393C27.2651 30.1408 27.3036 30.4551 27.3036 30.7694V40.2123C27.3036 42.1881 25.938 43.9265 24.0081 44.3371C23.9504 44.3499 23.8992 44.3627 23.8415 44.3692C23.8415 44.3692 22.3669 44.5809 22.0912 45.8446H28.4704H34.8497C34.5676 44.5809 33.0994 44.3692 33.0994 44.3692C33.0481 44.3627 32.9968 44.3499 32.9519 44.3371C31.0093 43.9265 29.6373 42.1945 29.6373 40.2058V30.7694C29.6373 30.423 29.6886 30.083 29.7847 29.7495C29.7976 29.6981 29.7719 29.5634 29.7911 29.5121C29.913 29.1593 30.0925 28.8001 30.3169 28.4986L37.5873 18.8761L37.8117 18.7029L39.2414 16.7977Z" fill="#C8EFFE"/>
<path d="M29.6309 30.7694V40.2123C29.6309 42.1945 31.0093 43.9329 32.9455 44.3435C32.9968 44.3563 33.0417 44.3627 33.093 44.3756C33.093 44.3756 34.5676 44.5873 34.8432 45.851H33.3366C33.1955 45.2159 32.689 45.0812 32.0736 44.9593C30.8682 44.7156 29.9194 44.1318 29.1885 43.0862C28.605 42.2586 28.3037 41.2322 28.3037 40.2251C28.3037 40.2187 28.3037 30.7823 28.3037 30.7823C28.3037 29.9996 28.5602 29.2427 29.0282 28.6204L37.7412 16.7977C38.0425 16.3935 37.7604 15.8162 37.2539 15.8162H38.7541C39.2606 15.8162 39.5427 16.3935 39.2414 16.7977L30.3553 28.6076C29.8873 29.2299 29.6309 29.9932 29.6309 30.7694Z" fill="#99E6FC"/>
<path d="M37.863 18.6324L30.3553 28.6076C30.0732 28.9797 29.8745 29.3966 29.7527 29.8393H27.1881L27.1625 29.7431C27.0407 29.3325 26.8483 28.9476 26.5919 28.6076L18.7445 18.1897C21.2897 18.0358 23.8927 18.658 26.3739 19.2289C29.5154 19.9538 32.9519 20.5953 36.0229 19.5369C36.6833 19.3123 37.3052 19.0044 37.863 18.6324Z" fill="#F58990"/>
<path d="M37.863 18.6324C37.863 18.6324 30.3682 28.5948 30.3553 28.614C30.1951 28.8257 30.0604 29.0567 29.9514 29.3004C29.8873 29.448 29.8296 29.6019 29.7783 29.7623C29.7719 29.788 29.7591 29.82 29.7527 29.8521H28.4255C28.5409 29.4095 28.7461 28.9925 29.0282 28.6204L35.619 19.6716C35.7537 19.6331 35.8883 19.5882 36.0229 19.5433C36.6833 19.3123 37.3052 19.0044 37.863 18.6324Z" fill="#FA6B74"/>
</svg>
