<svg width="15" height="15" viewBox="0 0 15 15" fill="none" xmlns="http://www.w3.org/2000/svg">
<path fill-rule="evenodd" clip-rule="evenodd" d="M6.43749 12.4583C3.11228 12.4583 0.416656 9.7627 0.416656 6.43749C0.416656 3.11228 3.11228 0.416656 6.43749 0.416656C9.7627 0.416656 12.4583 3.11228 12.4583 6.43749C12.4583 7.84486 11.9754 9.13944 11.1663 10.1646L14.3759 13.3741C14.6525 13.6507 14.6525 14.0992 14.3759 14.3759C14.0992 14.6525 13.6507 14.6525 13.3741 14.3759L10.1646 11.1663C9.13944 11.9755 7.84486 12.4583 6.43749 12.4583ZM9.64749 9.73814C8.81815 10.5448 7.68584 11.0417 6.43749 11.0417C3.89468 11.0417 1.83332 8.9803 1.83332 6.43749C1.83332 3.89468 3.89468 1.83332 6.43749 1.83332C8.9803 1.83332 11.0417 3.89468 11.0417 6.43749C11.0417 7.68584 10.5448 8.81815 9.73814 9.64749C9.72187 9.66108 9.70607 9.67551 9.69079 9.69079C9.67551 9.70607 9.66108 9.72187 9.64749 9.73814Z" fill="#363B7F"/>
<path d="M11.1663 10.1646L10.9701 10.0097L10.8324 10.1842L10.9896 10.3414L11.1663 10.1646ZM14.3759 13.3741L14.1991 13.5509L14.3759 13.3741ZM14.3759 14.3759L14.1991 14.1991L14.1991 14.1991L14.3759 14.3759ZM13.3741 14.3759L13.1973 14.5526L13.3741 14.3759ZM10.1646 11.1663L10.3414 10.9896L10.1842 10.8324L10.0097 10.9701L10.1646 11.1663ZM9.64749 9.73814L9.8218 9.91734L9.83107 9.90833L9.83935 9.89841L9.64749 9.73814ZM9.73814 9.64749L9.89841 9.83935L9.90833 9.83107L9.91734 9.8218L9.73814 9.64749ZM0.166656 6.43749C0.166656 9.90078 2.9742 12.7083 6.43749 12.7083V12.2083C3.25035 12.2083 0.666656 9.62463 0.666656 6.43749H0.166656ZM6.43749 0.166656C2.9742 0.166656 0.166656 2.9742 0.166656 6.43749H0.666656C0.666656 3.25035 3.25035 0.666656 6.43749 0.666656V0.166656ZM12.7083 6.43749C12.7083 2.9742 9.90078 0.166656 6.43749 0.166656V0.666656C9.62463 0.666656 12.2083 3.25035 12.2083 6.43749H12.7083ZM11.3626 10.3195C12.2053 9.25179 12.7083 7.90304 12.7083 6.43749H12.2083C12.2083 7.78667 11.7456 9.02709 10.9701 10.0097L11.3626 10.3195ZM14.5526 13.1973L11.3431 9.98783L10.9896 10.3414L14.1991 13.5509L14.5526 13.1973ZM14.5526 14.5526C14.9269 14.1784 14.9269 13.5716 14.5526 13.1973L14.1991 13.5509C14.3781 13.7299 14.3781 14.0201 14.1991 14.1991L14.5526 14.5526ZM13.1973 14.5526C13.5716 14.9269 14.1784 14.9269 14.5526 14.5526L14.1991 14.1991C14.0201 14.3781 13.7299 14.3781 13.5509 14.1991L13.1973 14.5526ZM9.98783 11.3431L13.1973 14.5526L13.5509 14.1991L10.3414 10.9896L9.98783 11.3431ZM6.43749 12.7083C7.90304 12.7083 9.25179 12.2053 10.3195 11.3626L10.0097 10.9701C9.02709 11.7456 7.78667 12.2083 6.43749 12.2083V12.7083ZM9.47318 9.55893C8.68862 10.3221 7.61815 10.7917 6.43749 10.7917V11.2917C7.75353 11.2917 8.94768 10.7676 9.8218 9.91734L9.47318 9.55893ZM6.43749 10.7917C4.03275 10.7917 2.08332 8.84223 2.08332 6.43749H1.58332C1.58332 9.11837 3.75661 11.2917 6.43749 11.2917V10.7917ZM2.08332 6.43749C2.08332 4.03275 4.03275 2.08332 6.43749 2.08332V1.58332C3.75661 1.58332 1.58332 3.75661 1.58332 6.43749H2.08332ZM6.43749 2.08332C8.84223 2.08332 10.7917 4.03275 10.7917 6.43749H11.2917C11.2917 3.75661 9.11837 1.58332 6.43749 1.58332V2.08332ZM10.7917 6.43749C10.7917 7.61815 10.3221 8.68862 9.55893 9.47318L9.91734 9.8218C10.7676 8.94768 11.2917 7.75353 11.2917 6.43749H10.7917ZM9.57786 9.45562C9.55588 9.47398 9.53458 9.49345 9.51401 9.51401L9.86757 9.86757C9.87756 9.85757 9.88785 9.84818 9.89841 9.83935L9.57786 9.45562ZM9.51401 9.51401C9.49345 9.53458 9.47398 9.55588 9.45562 9.57786L9.83935 9.89841C9.84818 9.88785 9.85757 9.87756 9.86757 9.86757L9.51401 9.51401Z" fill="#151A6A"/>
</svg>
