<svg width="24" height="24" viewBox="0 0 24 24" fill="none" xmlns="http://www.w3.org/2000/svg">
<path d="M6.25874 17.7413C4.18132 16.3886 2.38018 14.6532 0.951365 12.6274C0.820719 12.4439 0.750262 12.2244 0.749725 11.9992C0.749187 11.7739 0.818596 11.5541 0.948365 11.37C2.22036 9.56512 6.29736 4.5 12 4.5C14.0406 4.53592 16.0299 5.14498 17.7409 6.25763" stroke="#DADADA" stroke-miterlimit="10"/>
<path d="M19.4659 7.5C20.8194 8.6316 22.0233 9.93092 23.0486 11.3666C23.1801 11.5514 23.2505 11.7727 23.2499 11.9995C23.2494 12.2263 23.178 12.4473 23.0456 12.6315C21.747 14.4375 17.61 19.5 12 19.5C10.7094 19.4933 9.43214 19.2387 8.23762 18.75" stroke="#DADADA" stroke-miterlimit="10" stroke-linecap="square"/>
<path d="M1.875 22.125L22.125 1.875" stroke="#DADADA" stroke-miterlimit="10" stroke-linecap="square"/>
<path d="M16.2454 10.5C16.5277 11.3012 16.5776 12.1659 16.3894 12.9943C16.2012 13.8226 15.7826 14.5809 15.1818 15.1814C14.581 15.782 13.8226 16.2004 12.9942 16.3883C12.1658 16.5763 11.3011 16.5261 10.5 16.2435" stroke="#DADADA" stroke-miterlimit="10" stroke-linecap="square"/>
<path d="M8.81962 15.1819C7.98696 14.3357 7.52237 13.1949 7.52707 12.0077C7.53176 10.8206 8.00535 9.68345 8.84468 8.84393C9.684 8.00441 10.8211 7.53055 12.0082 7.52558C13.1953 7.5206 14.3363 7.98492 15.1826 8.81738" stroke="#DADADA" stroke-miterlimit="10"/>
</svg>
