<svg width="82" height="51" viewBox="0 0 82 51" fill="none" xmlns="http://www.w3.org/2000/svg">
<path d="M57.5872 36.47L58.3011 40.896C58.3011 40.896 61.0138 51.8182 72.0074 49.1055C82.7868 46.3928 80.2169 35.3991 80.2169 35.3991C80.2169 35.3991 78.3608 22.6208 75.6481 11.6986C72.9354 0.776392 60.1571 1.70442 60.1571 1.70442H41.0254H21.8222C21.8222 1.70442 9.04396 0.776392 6.33125 11.6986C3.61854 22.6208 1.76247 35.3991 1.76247 35.3991C1.76247 35.3991 -0.807469 46.3928 9.97198 49.1055C20.8942 51.8182 23.6783 40.896 23.6783 40.896L24.3922 36.2558" stroke="#74AA80" stroke-opacity="0.92" stroke-width="2" stroke-miterlimit="10" stroke-linecap="round" stroke-linejoin="round"/>
<path d="M36.3138 29.0457H40.954H46.2366" stroke="#74AA80" stroke-opacity="0.92" stroke-width="2" stroke-miterlimit="10" stroke-linecap="round" stroke-linejoin="round"/>
<path d="M53.7323 2.13275V11.6986C53.7323 14.1972 51.662 16.2674 49.1635 16.2674H33.6725C31.1739 16.2674 29.1037 14.1972 29.1037 11.6986V1.70442" stroke="#74AA80" stroke-opacity="0.92" stroke-width="2" stroke-miterlimit="10" stroke-linecap="round" stroke-linejoin="round"/>
<path d="M18.1815 9.91394V21.7642" stroke="#74AA80" stroke-opacity="0.92" stroke-width="2" stroke-miterlimit="10" stroke-linecap="round" stroke-linejoin="round"/>
<path d="M24.1066 15.8391H12.2563" stroke="#74AA80" stroke-opacity="0.92" stroke-width="2" stroke-miterlimit="10" stroke-linecap="round" stroke-linejoin="round"/>
<path d="M64.6545 12.698C65.6795 12.698 66.5105 11.8671 66.5105 10.842C66.5105 9.8169 65.6795 8.98592 64.6545 8.98592C63.6294 8.98592 62.7984 9.8169 62.7984 10.842C62.7984 11.8671 63.6294 12.698 64.6545 12.698Z" stroke="#74AA80" stroke-opacity="0.92" stroke-width="2" stroke-miterlimit="10" stroke-linecap="round" stroke-linejoin="round"/>
<path d="M70.1513 17.2668C71.1764 17.2668 72.0074 16.4358 72.0074 15.4108C72.0074 14.3857 71.1764 13.5547 70.1513 13.5547C69.1263 13.5547 68.2953 14.3857 68.2953 15.4108C68.2953 16.4358 69.1263 17.2668 70.1513 17.2668Z" stroke="#74AA80" stroke-opacity="0.92" stroke-width="2" stroke-miterlimit="10" stroke-linecap="round" stroke-linejoin="round"/>
<path d="M64.6545 21.7642C65.6795 21.7642 66.5105 20.9332 66.5105 19.9081C66.5105 18.8831 65.6795 18.0521 64.6545 18.0521C63.6294 18.0521 62.7984 18.8831 62.7984 19.9081C62.7984 20.9332 63.6294 21.7642 64.6545 21.7642Z" stroke="#74AA80" stroke-opacity="0.92" stroke-width="2" stroke-miterlimit="10" stroke-linecap="round" stroke-linejoin="round"/>
<path d="M60.1571 17.2668C61.1822 17.2668 62.0132 16.4358 62.0132 15.4108C62.0132 14.3857 61.1822 13.5547 60.1571 13.5547C59.1321 13.5547 58.3011 14.3857 58.3011 15.4108C58.3011 16.4358 59.1321 17.2668 60.1571 17.2668Z" stroke="#74AA80" stroke-opacity="0.92" stroke-width="2" stroke-miterlimit="10" stroke-linecap="round" stroke-linejoin="round"/>
<path d="M28.6754 37.3266C32.9729 37.3266 36.4566 33.8428 36.4566 29.5454C36.4566 25.248 32.9729 21.7642 28.6754 21.7642C24.378 21.7642 20.8942 25.248 20.8942 29.5454C20.8942 33.8428 24.378 37.3266 28.6754 37.3266Z" stroke="#74AA80" stroke-opacity="0.92" stroke-width="2" stroke-miterlimit="10" stroke-linecap="round" stroke-linejoin="round"/>
<path d="M54.232 37.3266C58.5294 37.3266 62.0132 33.8428 62.0132 29.5454C62.0132 25.248 58.5294 21.7642 54.232 21.7642C49.9346 21.7642 46.4508 25.248 46.4508 29.5454C46.4508 33.8428 49.9346 37.3266 54.232 37.3266Z" stroke="#74AA80" stroke-opacity="0.92" stroke-width="2" stroke-miterlimit="10" stroke-linecap="round" stroke-linejoin="round"/>
</svg>
