<svg width="108" height="125" viewBox="0 0 108 125" fill="none" xmlns="http://www.w3.org/2000/svg">
<path d="M46.0656 107.224L51.9194 98.9431L48.9925 92.5183L54.7748 88.8775" stroke="#74AA80" stroke-opacity="0.92" stroke-width="2" stroke-miterlimit="10" stroke-linecap="round" stroke-linejoin="round"/>
<path d="M63.4841 107.224L57.7017 98.9431L60.6286 92.5183L54.7748 88.8775" stroke="#74AA80" stroke-opacity="0.92" stroke-width="2" stroke-miterlimit="10" stroke-linecap="round" stroke-linejoin="round"/>
<path d="M11.3715 35.0517V56.8247" stroke="#74AA80" stroke-opacity="0.92" stroke-width="2" stroke-miterlimit="10" stroke-linecap="round" stroke-linejoin="round"/>
<path d="M11.5857 65.4626C13.9512 65.4626 15.8689 63.5449 15.8689 61.1793C15.8689 58.8138 13.9512 56.8961 11.5857 56.8961C9.2201 56.8961 7.30243 58.8138 7.30243 61.1793C7.30243 63.5449 9.2201 65.4626 11.5857 65.4626Z" stroke="#74AA80" stroke-opacity="0.92" stroke-width="2" stroke-miterlimit="10" stroke-linecap="round" stroke-linejoin="round"/>
<path d="M36.4283 75.5995L32.7876 89.8056" stroke="#74AA80" stroke-opacity="0.92" stroke-width="2" stroke-miterlimit="10" stroke-linecap="round" stroke-linejoin="round"/>
<path d="M72.4074 75.5995L76.0482 89.8056" stroke="#74AA80" stroke-opacity="0.92" stroke-width="2" stroke-miterlimit="10" stroke-linecap="round" stroke-linejoin="round"/>
<path d="M27.8619 42.2617C27.8619 42.8328 27.8619 43.4039 27.8619 43.9037C27.8619 44.5461 28.2188 47.8299 28.2188 47.8299C22.8648 46.9733 22.2937 50.4713 22.8648 53.184C24.1498 59.1091 28.3616 62.4643 30.5032 62.2501C35.4289 78.2409 46.2798 87.4498 54.5607 87.4498C62.8416 87.4498 73.6924 78.2409 78.6181 62.2501C80.7597 62.4643 85.4713 59.2519 86.1138 53.184C86.5421 49.0435 84.0436 47.4016 81.1881 48.2583C81.1881 47.6158 81.2595 44.6175 81.2595 43.975" stroke="#74AA80" stroke-opacity="0.92" stroke-width="2" stroke-miterlimit="10" stroke-linecap="round" stroke-linejoin="round"/>
<path d="M83.1869 39.9774L106.388 32.5531L55.4887 1L4.58972 32.5531L24.9351 39.6204L26.577 39.0493" stroke="#74AA80" stroke-opacity="0.92" stroke-width="2" stroke-miterlimit="10" stroke-linecap="round" stroke-linejoin="round"/>
<path d="M100.962 100.157C96.3935 98.0151 81.4736 92.8752 75.4771 89.8056L58.0586 115.719C56.2739 117.504 53.3471 117.504 51.5624 115.719L32.7876 89.8056C26.7911 92.8038 12.4423 97.9437 7.73071 100.157C1.02032 103.369 1.73419 110.508 1.73419 110.508V124H54.2751H54.3465H106.887V110.508C106.959 110.508 107.673 103.369 100.962 100.157Z" stroke="#74AA80" stroke-opacity="0.92" stroke-width="2" stroke-miterlimit="10" stroke-linecap="round" stroke-linejoin="round"/>
<path d="M53.7754 24.058C43.8526 24.058 34.5723 26.1283 26.7911 29.5549C26.7911 29.9118 26.7911 30.1973 26.7911 30.5543V42.6901C34.6437 39.1921 43.8526 37.1933 53.8468 37.1933C64.4121 37.1933 74.2635 39.4777 82.4016 43.404V30.5543C82.4016 30.4829 82.4016 30.3401 82.4016 30.2687C74.1921 26.4138 64.3407 24.058 53.7754 24.058Z" stroke="#74AA80" stroke-opacity="0.92" stroke-width="2" stroke-miterlimit="10" stroke-linecap="round" stroke-linejoin="round"/>
</svg>
