<svg width="40" height="51" viewBox="0 0 40 51" fill="none" xmlns="http://www.w3.org/2000/svg">
<path d="M20.0146 1.50195C22.443 1.48196 24.8513 1.94293 27.0996 2.86133C29.3565 3.78327 31.4069 5.14625 33.1309 6.87012L33.4502 7.19727C35.0239 8.85138 36.2753 10.7863 37.1396 12.9023C38.0598 15.1549 38.5229 17.5679 38.501 20.001L38.4883 20.5918C38.3642 23.5581 37.3271 26.6756 35.9014 29.6465C34.3719 32.8336 32.3408 35.9641 30.3135 38.7246C26.2618 44.2416 22.1302 48.4055 21.7676 48.7676L21.7686 48.7686C21.2998 49.2373 20.6639 49.5008 20.001 49.501H20C19.3374 49.5007 18.702 49.2371 18.2334 48.7686V48.7676C17.8687 48.4033 13.739 44.24 9.68848 38.7246C7.66118 35.9641 5.63005 32.8336 4.10059 29.6465C2.67489 26.6756 1.63776 23.5581 1.51367 20.5918L1.50098 20.001C1.47908 17.568 1.94124 15.1549 2.86133 12.9023C3.78332 10.6453 5.1461 8.59413 6.87012 6.87012L7.19727 6.55176C8.85142 4.97798 10.7862 3.72575 12.9023 2.86133C15.1503 1.94309 17.5583 1.48204 19.9863 1.50195V1.50098C19.9912 1.50093 19.9961 1.502 20.001 1.50195C20.0058 1.502 20.0108 1.50093 20.0156 1.50098L20.0146 1.50195Z" fill="#4F3A57" stroke="white" stroke-width="3"/>
<path d="M20.0008 26.0008C23.3145 26.0008 26.0008 23.3145 26.0008 20.0008C26.0008 16.6871 23.3145 14.0008 20.0008 14.0008C16.6871 14.0008 14.0008 16.6871 14.0008 20.0008C14.0008 23.3145 16.6871 26.0008 20.0008 26.0008Z" fill="white"/>
</svg>
