
<svg width="138" height="124" viewBox="0 0 138 124" fill="none" xmlns="http://www.w3.org/2000/svg">
<path fill-rule="evenodd" clip-rule="evenodd" d="M67.0641 117.02C95.9406 117.02 119.35 93.611 119.35 64.7345C119.35 35.8581 95.9406 12.4492 67.0641 12.4492C38.1877 12.4492 14.7788 35.8581 14.7788 64.7345C14.7788 93.611 38.1877 117.02 67.0641 117.02Z" stroke="#E7E7E7" stroke-width="5"/>
<mask id="mask0_98_188" style="mask-type:luminance" maskUnits="userSpaceOnUse" x="0" y="0" width="138" height="124">
<path fill-rule="evenodd" clip-rule="evenodd" d="M67.4403 67.5594L0 13.2397L0 124H137.807V0H67.4403V67.5594Z" fill="white"/>
</mask>
<g mask="url(#mask0_98_188)">
<path fill-rule="evenodd" clip-rule="evenodd" d="M67.0641 117.02C95.9406 117.02 119.35 93.611 119.35 64.7346C119.35 35.8582 95.9406 12.4492 67.0641 12.4492C38.1877 12.4492 14.7788 35.8582 14.7788 64.7346C14.7788 93.611 38.1877 117.02 67.0641 117.02Z" stroke="#6FCF97" stroke-width="5"/>
</g>
<path d="M59.8244 42.6992C59.8244 43.7695 59.5002 44.6797 58.8517 45.4297C58.2033 46.1797 57.2931 46.6953 56.1213 46.9766V47.0469C57.5041 47.2188 58.5509 47.6406 59.2619 48.3125C59.9728 48.9766 60.3283 49.875 60.3283 51.0078C60.3283 52.6562 59.7306 53.9414 58.5353 54.8633C57.34 55.7773 55.633 56.2344 53.4142 56.2344C51.5548 56.2344 49.9064 55.9258 48.4689 55.3086V52.2266C49.133 52.5625 49.8634 52.8359 50.6603 53.0469C51.4572 53.2578 52.2463 53.3633 53.0275 53.3633C54.2228 53.3633 55.1056 53.1602 55.6759 52.7539C56.2463 52.3477 56.5314 51.6953 56.5314 50.7969C56.5314 49.9922 56.2033 49.4219 55.547 49.0859C54.8908 48.75 53.8439 48.582 52.4064 48.582H51.1056V45.8047H52.4298C53.758 45.8047 54.7267 45.6328 55.3361 45.2891C55.9533 44.9375 56.2619 44.3398 56.2619 43.4961C56.2619 42.1992 55.4494 41.5508 53.8244 41.5508C53.2619 41.5508 52.6877 41.6445 52.1017 41.832C51.5236 42.0195 50.8791 42.3438 50.1681 42.8047L48.4923 40.3086C50.0548 39.1836 51.9181 38.6211 54.0822 38.6211C55.8556 38.6211 57.2541 38.9805 58.2775 39.6992C59.3088 40.418 59.8244 41.418 59.8244 42.6992ZM74.59 52.4492H72.5275V56H68.9884V52.4492H61.6759V49.9297L69.1877 38.8672H72.5275V49.6367H74.59V52.4492ZM68.9884 49.6367V46.7305C68.9884 46.2461 69.008 45.543 69.047 44.6211C69.0861 43.6992 69.1173 43.1641 69.1408 43.0156H69.047C68.758 43.6562 68.4103 44.2812 68.0041 44.8906L64.8634 49.6367H68.9884ZM82.172 45.0547C83.8283 45.0547 85.1447 45.5195 86.1213 46.4492C87.1056 47.3789 87.5978 48.6523 87.5978 50.2695C87.5978 52.1836 87.008 53.6562 85.8283 54.6875C84.6486 55.7188 82.9611 56.2344 80.7658 56.2344C78.8595 56.2344 77.3205 55.9258 76.1486 55.3086V52.1797C76.7658 52.5078 77.4845 52.7773 78.3048 52.9883C79.1252 53.1914 79.9025 53.293 80.6369 53.293C82.8478 53.293 83.9533 52.3867 83.9533 50.5742C83.9533 48.8477 82.8088 47.9844 80.5197 47.9844C80.1056 47.9844 79.6486 48.0273 79.1486 48.1133C78.6486 48.1914 78.2423 48.2773 77.9298 48.3711L76.4884 47.5977L77.133 38.8672H86.4259V41.9375H80.3088L79.9923 45.3008L80.4025 45.2188C80.8791 45.1094 81.4689 45.0547 82.172 45.0547Z" fill="#4F3A57"/>
<path d="M50.4157 68.811H51.4694C52.1761 68.811 52.6881 68.6798 53.0055 68.4174C53.3229 68.1551 53.4816 67.7658 53.4816 67.2495C53.4816 66.7247 53.3102 66.3481 52.9674 66.1196C52.6246 65.8911 52.1084 65.7768 51.4186 65.7768H50.4157V68.811ZM50.4157 70.0678V73.7749H48.8986V64.4946H51.5202C52.7177 64.4946 53.6043 64.7189 54.1798 65.1674C54.7553 65.616 55.0431 66.2931 55.0431 67.1987C55.0431 68.354 54.4422 69.1771 53.2404 69.6679L55.8619 73.7749H54.1354L51.9137 70.0678H50.4157ZM62.4635 73.7749H57.214V64.4946H62.4635V65.7768H58.7311V68.3032H62.2286V69.5727H58.7311V72.4863H62.4635V73.7749ZM70.233 73.7749L69.3063 71.1977H65.7579L64.8502 73.7749H63.2506L66.7228 64.4565H68.3732L71.8453 73.7749H70.233ZM68.9064 69.8901L68.0368 67.3637C67.9733 67.1945 67.8844 66.9279 67.7702 66.5639C67.6601 66.2 67.584 65.9334 67.5416 65.7641C67.4274 66.2846 67.2602 66.8538 67.0402 67.4716L66.2023 69.8901H68.9064ZM77.0187 65.6626C76.1469 65.6626 75.4614 65.9715 74.962 66.5893C74.4627 67.2072 74.213 68.0599 74.213 69.1474C74.213 70.2858 74.4521 71.1469 74.9303 71.7309C75.4127 72.3149 76.1089 72.6069 77.0187 72.6069C77.4122 72.6069 77.7931 72.5688 78.1613 72.4926C78.5294 72.4122 78.9124 72.3107 79.3102 72.188V73.4892C78.5823 73.7643 77.7571 73.9018 76.8346 73.9018C75.4762 73.9018 74.4331 73.4913 73.7052 72.6704C72.9773 71.8452 72.6134 70.6666 72.6134 69.1347C72.6134 68.1699 72.789 67.3257 73.1403 66.602C73.4957 65.8784 74.0078 65.324 74.6764 64.9389C75.345 64.5538 76.13 64.3613 77.0314 64.3613C77.9793 64.3613 78.8553 64.5602 79.6593 64.958L79.1134 66.2212C78.8003 66.073 78.4681 65.944 78.1168 65.834C77.7698 65.7197 77.4038 65.6626 77.0187 65.6626ZM88.6285 73.7749H87.1051V69.5918H82.8268V73.7749H81.3097V64.4946H82.8268V68.2905H87.1051V64.4946H88.6285V73.7749Z" fill="#4F3A57"/>
<path d="M57.4273 87.3461C57.4273 87.0805 57.318 86.8227 57.1383 86.6352L52.0523 81.5492C51.8648 81.3617 51.607 81.2602 51.3414 81.2602C51.0758 81.2602 50.818 81.3617 50.6383 81.5492L45.5523 86.6352C45.3648 86.8227 45.2555 87.0805 45.2555 87.3461C45.2555 87.6117 45.3648 87.8617 45.5523 88.0492L46.1383 88.6352C46.318 88.8227 46.5758 88.932 46.8414 88.932C47.107 88.932 47.3648 88.8227 47.5445 88.6352L49.8414 86.3461V91.8461C49.8414 92.4086 50.3102 92.7602 50.8414 92.7602H51.8414C52.3727 92.7602 52.8414 92.4086 52.8414 91.8461V86.3461L55.1383 88.6352C55.318 88.8227 55.5758 88.932 55.8414 88.932C56.107 88.932 56.3648 88.8227 56.5523 88.6352L57.1383 88.0492C57.318 87.8617 57.4273 87.6117 57.4273 87.3461Z" fill="#6FCF97"/>
<path d="M65.1567 83.3592C66.0369 83.3592 66.733 83.5624 67.2451 83.9686C67.7571 84.3706 68.0131 84.9102 68.0131 85.5873C68.0131 86.5394 67.4418 87.2969 66.2993 87.8597C67.0271 88.2237 67.5434 88.6066 67.8481 89.0087C68.157 89.4107 68.3115 89.8592 68.3115 90.3544C68.3115 91.1203 68.03 91.7339 67.4672 92.1952C66.9044 92.6564 66.1427 92.8871 65.1821 92.8871C64.1749 92.8871 63.3941 92.6712 62.8398 92.2396C62.2854 91.808 62.0082 91.1965 62.0082 90.4051C62.0082 89.8889 62.1521 89.4255 62.4399 89.015C62.7319 88.6003 63.2079 88.2321 63.8681 87.9105C63.301 87.572 62.8969 87.2144 62.6557 86.8378C62.4145 86.4611 62.2939 86.0379 62.2939 85.5682C62.2939 84.8954 62.5584 84.3601 63.0873 83.9623C63.6163 83.5602 64.3061 83.3592 65.1567 83.3592ZM63.4365 90.3544C63.4365 90.7945 63.5909 91.1372 63.8998 91.3827C64.2088 91.6239 64.6277 91.7445 65.1567 91.7445C65.7026 91.7445 66.1258 91.6197 66.4262 91.37C66.7309 91.1161 66.8832 90.7733 66.8832 90.3417C66.8832 89.9989 66.7436 89.6857 66.4643 89.4022C66.185 89.1187 65.7618 88.8563 65.1948 88.6151L65.0107 88.5326C64.4521 88.778 64.0501 89.0489 63.8046 89.3451C63.5592 89.6371 63.4365 89.9735 63.4365 90.3544ZM65.144 84.5082C64.7208 84.5082 64.3801 84.614 64.122 84.8255C63.8639 85.0329 63.7348 85.3164 63.7348 85.6761C63.7348 85.8962 63.7814 86.093 63.8745 86.2665C63.9675 86.44 64.103 86.5987 64.2807 86.7425C64.4584 86.8822 64.7589 87.0515 65.1821 87.2504C65.6899 87.0261 66.0475 86.7912 66.2548 86.5458C66.4664 86.2961 66.5722 86.0062 66.5722 85.6761C66.5722 85.3164 66.441 85.0329 66.1786 84.8255C65.9205 84.614 65.5756 84.5082 65.144 84.5082ZM69.7206 91.9667C69.7206 91.6577 69.801 91.4208 69.9619 91.2557C70.1227 91.0907 70.3554 91.0082 70.6601 91.0082C70.969 91.0082 71.2039 91.0949 71.3647 91.2684C71.5255 91.4377 71.6059 91.6704 71.6059 91.9667C71.6059 92.2671 71.5234 92.5062 71.3583 92.6839C71.1975 92.8574 70.9648 92.9442 70.6601 92.9442C70.3554 92.9442 70.1227 92.8574 69.9619 92.6839C69.801 92.5104 69.7206 92.2713 69.7206 91.9667ZM77.4077 92.7601H75.916V86.7679C75.916 86.0528 75.9329 85.4857 75.9667 85.0668C75.8694 85.1683 75.7488 85.2805 75.6049 85.4032C75.4653 85.5259 74.9913 85.9152 74.183 86.5712L73.434 85.6254L76.1635 83.4798H77.4077V92.7601ZM81.6542 86.2601C81.6542 86.8907 81.7156 87.3604 81.8383 87.6693C81.961 87.9782 82.162 88.1327 82.4413 88.1327C82.9999 88.1327 83.2792 87.5085 83.2792 86.2601C83.2792 85.0117 82.9999 84.3876 82.4413 84.3876C82.162 84.3876 81.961 84.542 81.8383 84.8509C81.7156 85.1599 81.6542 85.6296 81.6542 86.2601ZM84.5107 86.2474C84.5107 87.2207 84.3351 87.9528 83.9838 88.4437C83.6368 88.9304 83.1227 89.1737 82.4413 89.1737C81.7981 89.1737 81.2988 88.9219 80.9433 88.4183C80.5921 87.9105 80.4164 87.1869 80.4164 86.2474C80.4164 84.3135 81.0914 83.3465 82.4413 83.3465C83.1057 83.3465 83.6157 83.5983 83.9711 84.1019C84.3308 84.6013 84.5107 85.3164 84.5107 86.2474ZM87.6972 89.9671C87.6972 90.5977 87.7586 91.0695 87.8813 91.3827C88.0082 91.6958 88.2114 91.8524 88.4907 91.8524C89.045 91.8524 89.3222 91.224 89.3222 89.9671C89.3222 88.7272 89.045 88.1073 88.4907 88.1073C88.2114 88.1073 88.0082 88.2596 87.8813 88.5643C87.7586 88.869 87.6972 89.3366 87.6972 89.9671ZM90.5536 89.9671C90.5536 90.9405 90.378 91.6704 90.0268 92.1571C89.6756 92.6437 89.1635 92.8871 88.4907 92.8871C87.8474 92.8871 87.3481 92.6374 86.9926 92.138C86.6371 91.6345 86.4594 90.9108 86.4594 89.9671C86.4594 88.0332 87.1365 87.0663 88.4907 87.0663C89.1424 87.0663 89.6481 87.3159 90.0078 87.8153C90.3717 88.3146 90.5536 89.0319 90.5536 89.9671ZM88.6684 83.4798L83.5204 92.7601H82.289L87.437 83.4798H88.6684Z" fill="#4F3A57"/>
</svg>
