<svg width="71" height="138" viewBox="0 0 71 138" fill="none" xmlns="http://www.w3.org/2000/svg">
<path d="M67.6742 1.32629C68.8016 1.32629 69.6636 2.18837 69.6636 3.31571V134.684C69.6636 135.812 68.8016 136.674 67.6742 136.674H3.482C2.35465 136.674 1.49257 135.812 1.49257 134.684V3.31571C1.49257 2.18837 2.35465 1.32629 3.482 1.32629H67.6742ZM67.6742 0H3.482C1.6252 0 0.166283 1.45891 0.166283 3.31571V134.684C0.166283 136.541 1.6252 138 3.482 138H67.6742C69.531 138 70.9899 136.541 70.9899 134.684V3.31571C70.9899 1.45891 69.531 0 67.6742 0Z" fill="#606FBC" fill-opacity="0.92"/>
<path d="M59.6502 11.1408C60.7775 11.1408 61.6396 12.0029 61.6396 13.1302V85.8107C61.6396 86.938 60.7775 87.8001 59.6502 87.8001H11.4397C10.3124 87.8001 9.45028 86.938 9.45028 85.8107V13.1302C9.45028 12.0029 10.3124 11.1408 11.4397 11.1408H59.6502ZM59.6502 9.81451H11.4397C9.58291 9.81451 8.124 11.2734 8.124 13.1302V85.8107C8.124 87.6675 9.58291 89.1264 11.4397 89.1264H59.6502C61.507 89.1264 62.9659 87.6675 62.9659 85.8107V13.1302C62.9659 11.2734 61.507 9.81451 59.6502 9.81451Z" fill="#606FBC" fill-opacity="0.92"/>
<path d="M27.4878 97.283H10.9092V107.694H27.4878V97.283Z" stroke="#606FBC" stroke-opacity="0.92" stroke-width="2" stroke-miterlimit="10" stroke-linecap="round" stroke-linejoin="round"/>
<path d="M43.8674 97.283H27.2888V107.694H43.8674V97.283Z" stroke="#606FBC" stroke-opacity="0.92" stroke-width="2" stroke-miterlimit="10" stroke-linecap="round" stroke-linejoin="round"/>
<path d="M60.247 97.283H43.6685V107.694H60.247V97.283Z" stroke="#606FBC" stroke-opacity="0.92" stroke-width="2" stroke-miterlimit="10" stroke-linecap="round" stroke-linejoin="round"/>
<path d="M27.4878 107.495H10.9092V117.907H27.4878V107.495Z" stroke="#606FBC" stroke-opacity="0.92" stroke-width="2" stroke-miterlimit="10" stroke-linecap="round" stroke-linejoin="round"/>
<path d="M43.8674 107.495H27.2888V117.907H43.8674V107.495Z" stroke="#606FBC" stroke-opacity="0.92" stroke-width="2" stroke-miterlimit="10" stroke-linecap="round" stroke-linejoin="round"/>
<path d="M60.247 107.495H43.6685V117.907H60.247V107.495Z" stroke="#606FBC" stroke-opacity="0.92" stroke-width="2" stroke-miterlimit="10" stroke-linecap="round" stroke-linejoin="round"/>
<path d="M27.4878 117.774H10.9092V128.185H27.4878V117.774Z" stroke="#606FBC" stroke-opacity="0.92" stroke-width="2" stroke-miterlimit="10" stroke-linecap="round" stroke-linejoin="round"/>
<path d="M43.8674 117.774H27.2888V128.185H43.8674V117.774Z" stroke="#606FBC" stroke-opacity="0.92" stroke-width="2" stroke-miterlimit="10" stroke-linecap="round" stroke-linejoin="round"/>
<path d="M60.247 117.774H43.6685V128.185H60.247V117.774Z" stroke="#606FBC" stroke-opacity="0.92" stroke-width="2" stroke-miterlimit="10" stroke-linecap="round" stroke-linejoin="round"/>
<path d="M29.6098 37.6002V18.1701H41.5464V37.6002L35.5781 43.9664L29.6098 37.6002Z" stroke="#606FBC" stroke-opacity="0.92" stroke-width="2" stroke-miterlimit="10" stroke-linecap="round" stroke-linejoin="round"/>
<path d="M52.4219 19.2975V25.2657L41.5464 31.433V22.6132L52.4219 19.2975Z" stroke="#606FBC" stroke-opacity="0.92" stroke-width="2" stroke-miterlimit="10" stroke-linecap="round" stroke-linejoin="round"/>
<path d="M52.4219 30.5046V25.2657" stroke="#606FBC" stroke-opacity="0.92" stroke-width="2" stroke-miterlimit="10" stroke-linecap="round" stroke-linejoin="round"/>
<path d="M18.8006 19.2975V25.2657L29.6098 31.433V22.6132L18.8006 19.2975Z" stroke="#606FBC" stroke-opacity="0.92" stroke-width="2" stroke-miterlimit="10" stroke-linecap="round" stroke-linejoin="round"/>
<path d="M18.8006 30.5046V25.2657" stroke="#606FBC" stroke-opacity="0.92" stroke-width="2" stroke-miterlimit="10" stroke-linecap="round" stroke-linejoin="round"/>
<path d="M52.4219 35.0139V36.1413" stroke="#606FBC" stroke-opacity="0.92" stroke-width="2" stroke-miterlimit="10" stroke-linecap="round" stroke-linejoin="round"/>
<path d="M18.8006 35.0139V36.1413" stroke="#606FBC" stroke-opacity="0.92" stroke-width="2" stroke-miterlimit="10" stroke-linecap="round" stroke-linejoin="round"/>
<path d="M52.4219 40.9822V42.1096" stroke="#606FBC" stroke-opacity="0.92" stroke-width="2" stroke-miterlimit="10" stroke-linecap="round" stroke-linejoin="round"/>
<path d="M18.8006 40.9822V42.1096" stroke="#606FBC" stroke-opacity="0.92" stroke-width="2" stroke-miterlimit="10" stroke-linecap="round" stroke-linejoin="round"/>
<path d="M52.4219 46.221V47.3484" stroke="#606FBC" stroke-opacity="0.92" stroke-width="2" stroke-miterlimit="10" stroke-linecap="round" stroke-linejoin="round"/>
<path d="M18.8006 46.221V47.3484" stroke="#606FBC" stroke-opacity="0.92" stroke-width="2" stroke-miterlimit="10" stroke-linecap="round" stroke-linejoin="round"/>
<path d="M52.4219 52.1893V53.3167" stroke="#606FBC" stroke-opacity="0.92" stroke-width="2" stroke-miterlimit="10" stroke-linecap="round" stroke-linejoin="round"/>
<path d="M18.8006 52.1893V53.3167" stroke="#606FBC" stroke-opacity="0.92" stroke-width="2" stroke-miterlimit="10" stroke-linecap="round" stroke-linejoin="round"/>
<path d="M31.2677 80.9034V73.5425C31.2677 73.5425 30.4056 70.4258 35.5781 67.309C40.7506 70.4258 39.8885 73.5425 39.8885 73.5425V80.9034H31.2677Z" stroke="#606FBC" stroke-opacity="0.92" stroke-width="2" stroke-miterlimit="10" stroke-linecap="round" stroke-linejoin="round"/>
<path d="M23.9068 79.7097L31.2677 73.4762V78.3172L23.9068 79.7097Z" stroke="#606FBC" stroke-opacity="0.92" stroke-width="2" stroke-miterlimit="10" stroke-linecap="round" stroke-linejoin="round"/>
<path d="M47.2494 79.7097L39.8886 73.4762V78.3172L47.2494 79.7097Z" stroke="#606FBC" stroke-opacity="0.92" stroke-width="2" stroke-miterlimit="10" stroke-linecap="round" stroke-linejoin="round"/>
<path d="M35.5781 75.7972V80.9034" stroke="#606FBC" stroke-opacity="0.92" stroke-width="2" stroke-miterlimit="10" stroke-linecap="round" stroke-linejoin="round"/>
<path d="M25.631 60.147V61.7386" stroke="#606FBC" stroke-opacity="0.92" stroke-width="2" stroke-miterlimit="10" stroke-linecap="round" stroke-linejoin="round"/>
<path d="M25.631 65.5185V71.1552" stroke="#606FBC" stroke-opacity="0.92" stroke-width="2" stroke-miterlimit="10" stroke-linecap="round" stroke-linejoin="round"/>
<path d="M25.631 74.4709V78.5161" stroke="#606FBC" stroke-opacity="0.92" stroke-width="2" stroke-miterlimit="10" stroke-linecap="round" stroke-linejoin="round"/>
<path d="M45.5253 60.147V61.7386" stroke="#606FBC" stroke-opacity="0.92" stroke-width="2" stroke-miterlimit="10" stroke-linecap="round" stroke-linejoin="round"/>
<path d="M45.5253 65.5185V71.1552" stroke="#606FBC" stroke-opacity="0.92" stroke-width="2" stroke-miterlimit="10" stroke-linecap="round" stroke-linejoin="round"/>
<path d="M45.5253 74.4709V78.5161" stroke="#606FBC" stroke-opacity="0.92" stroke-width="2" stroke-miterlimit="10" stroke-linecap="round" stroke-linejoin="round"/>
</svg>
