<svg width="89" height="77" viewBox="0 0 89 77" fill="none" xmlns="http://www.w3.org/2000/svg">
<path d="M5.5349 38.3196L73.9712 12.5233" stroke="#606FBC" stroke-opacity="0.92" stroke-width="2" stroke-miterlimit="10" stroke-linecap="round" stroke-linejoin="round"/>
<path d="M66.6103 2.17828C68.7987 2.17828 70.7881 3.57087 71.5839 5.62662L86.7036 45.6141C87.7646 48.333 86.372 51.4498 83.5868 52.4445L23.9703 74.9913C23.3734 75.1903 22.7766 75.3229 22.1135 75.3229C19.9251 75.3229 17.9357 73.9303 17.1399 71.8746L2.02024 31.8871C1.48973 30.5608 1.55604 29.1019 2.15287 27.8419C2.7497 26.5156 3.81073 25.5872 5.13701 25.0567L64.7535 2.50985C65.3504 2.3109 65.9472 2.17828 66.6103 2.17828ZM66.6103 0.85199C65.8146 0.85199 65.0188 0.984617 64.2893 1.24987L4.67281 23.7967C1.29079 25.0567 -0.4997 28.9029 0.826586 32.3513L15.9462 72.3388C16.941 74.9913 19.4609 76.6492 22.1798 76.6492C22.9756 76.6492 23.7713 76.5166 24.5008 76.2513L84.1173 53.7045C87.4993 52.4445 89.2898 48.5983 87.9635 45.1499L72.8439 5.16242C71.8492 2.50985 69.2629 0.85199 66.6103 0.85199Z" fill="#606FBC" fill-opacity="0.92"/>
<path d="M8.98323 33.9428C10.5947 33.9428 11.9011 32.6365 11.9011 31.025C11.9011 29.4135 10.5947 28.1072 8.98323 28.1072C7.37175 28.1072 6.0654 29.4135 6.0654 31.025C6.0654 32.6365 7.37175 33.9428 8.98323 33.9428Z" stroke="#606FBC" stroke-opacity="0.92" stroke-width="2" stroke-miterlimit="10"/>
<path d="M17.4714 30.7597C19.0829 30.7597 20.3893 29.4534 20.3893 27.8419C20.3893 26.2304 19.0829 24.9241 17.4714 24.9241C15.86 24.9241 14.5536 26.2304 14.5536 27.8419C14.5536 29.4534 15.86 30.7597 17.4714 30.7597Z" stroke="#606FBC" stroke-opacity="0.92" stroke-width="2" stroke-miterlimit="10"/>
<path d="M25.9597 27.643C27.5712 27.643 28.8775 26.3366 28.8775 24.7251C28.8775 23.1137 27.5712 21.8073 25.9597 21.8073C24.3482 21.8073 23.0419 23.1137 23.0419 24.7251C23.0419 26.3366 24.3482 27.643 25.9597 27.643Z" stroke="#606FBC" stroke-opacity="0.92" stroke-width="2" stroke-miterlimit="10"/>
<path d="M28.1481 51.3835C28.0155 51.3172 27.9492 51.3172 27.9492 51.2508C27.8828 51.2508 27.8828 51.1845 27.8828 51.1845C27.8165 51.1845 27.8165 51.1182 27.8165 51.1182C27.7502 51.0519 27.7502 51.0519 27.7502 50.9856C27.6839 50.9193 27.6839 50.853 27.6839 50.7866C27.6839 50.7203 27.6839 50.654 27.6839 50.5877C27.6839 50.5214 27.6839 50.4551 27.6839 50.4551L27.7502 50.3225V50.2561L32.7238 39.1153C32.9227 38.7838 33.3869 38.5185 33.7848 38.7175C34.1827 38.9164 34.3153 39.3806 34.1827 39.7785L29.4744 50.2561L39.8857 55.0308C40.2173 55.2297 40.4162 55.6276 40.2836 56.0255C40.2173 56.2244 40.0184 56.357 39.8194 56.4234C39.6205 56.4897 39.4215 56.4897 39.2226 56.3571L28.1481 51.3835Z" fill="#606FBC" fill-opacity="0.92"/>
<path d="M44.793 53.5718L45.5224 34.4733C45.5887 34.1418 45.854 33.8102 46.1856 33.8102C46.5834 33.8102 46.8487 34.1418 46.8487 34.4733L46.1192 53.6382C46.1192 53.9034 45.9203 54.1687 45.7214 54.235C45.5887 54.3013 45.5224 54.3013 45.4561 54.3013C45.1245 54.235 44.793 53.9697 44.793 53.5718Z" fill="#606FBC" fill-opacity="0.92"/>
<path d="M56.9948 48.5983L61.7031 38.1206L51.2918 33.4123C50.8939 33.2134 50.7612 32.7492 50.8939 32.3513C51.0928 31.9534 51.557 31.8208 51.9549 31.9534L63.0294 37.0596H63.0957C63.2946 37.1259 63.4273 37.3248 63.4936 37.5238C63.5599 37.6564 63.5599 37.8554 63.4936 38.0543V38.1206V38.1869L58.52 49.2614C58.4537 49.4604 58.2548 49.593 58.1221 49.6593C57.9232 49.7256 57.7242 49.7256 57.5253 49.6593C56.9948 49.394 56.8622 48.9298 56.9948 48.5983Z" fill="#606FBC" fill-opacity="0.92"/>
</svg>
