<svg width="46" height="10" viewBox="0 0 46 10" fill="none" xmlns="http://www.w3.org/2000/svg">
<path fill-rule="evenodd" clip-rule="evenodd" d="M4.23267 7.10962L2.64143 7.94544C2.27459 8.13813 1.84603 7.82659 1.91613 7.41819L2.21992 5.64856L0.933472 4.3957C0.636491 4.10647 0.800233 3.60225 1.21048 3.54269L2.98872 3.28452L3.78438 1.67376C3.96785 1.30235 4.4975 1.30235 4.68096 1.67376L5.47662 3.28452L7.25487 3.54269C7.66511 3.60225 7.82886 4.10647 7.53188 4.3957L6.24543 5.64856L6.54921 7.41819C6.61932 7.82658 6.19075 8.13813 5.82391 7.94544L4.23267 7.10962Z" fill="#FFBA49"/>
<path fill-rule="evenodd" clip-rule="evenodd" d="M13.5445 7.10962L11.9533 7.94544C11.5865 8.13813 11.1579 7.82659 11.228 7.41819L11.5318 5.64856L10.2453 4.3957C9.94836 4.10647 10.1121 3.60225 10.5224 3.54269L12.3006 3.28452L13.0963 1.67376C13.2797 1.30235 13.8094 1.30235 13.9928 1.67376L14.7885 3.28452L16.5667 3.54269C16.977 3.60225 17.1407 4.10647 16.8437 4.3957L15.5573 5.64856L15.8611 7.41819C15.9312 7.82658 15.5026 8.13813 15.1358 7.94544L13.5445 7.10962Z" fill="#FFBA49"/>
<path fill-rule="evenodd" clip-rule="evenodd" d="M22.8564 7.10962L21.2652 7.94544C20.8984 8.13813 20.4698 7.82659 20.5399 7.41819L20.8437 5.64856L19.5572 4.3957C19.2603 4.10647 19.424 3.60225 19.8342 3.54269L21.6125 3.28452L22.4081 1.67376C22.5916 1.30235 23.1213 1.30235 23.3047 1.67376L24.1004 3.28452L25.8786 3.54269C26.2889 3.60225 26.4526 4.10647 26.1556 4.3957L24.8692 5.64856L25.173 7.41819C25.2431 7.82658 24.8145 8.13813 24.4477 7.94544L22.8564 7.10962Z" fill="#FFBA49"/>
<path fill-rule="evenodd" clip-rule="evenodd" d="M32.1683 7.10962L30.5771 7.94544C30.2102 8.13813 29.7817 7.82659 29.8518 7.41819L30.1556 5.64856L28.8691 4.3957C28.5721 4.10647 28.7359 3.60225 29.1461 3.54269L30.9244 3.28452L31.72 1.67376C31.9035 1.30235 32.4331 1.30235 32.6166 1.67376L33.4123 3.28452L35.1905 3.54269C35.6008 3.60225 35.7645 4.10647 35.4675 4.3957L34.1811 5.64856L34.4849 7.41819C34.555 7.82658 34.1264 8.13813 33.7596 7.94544L32.1683 7.10962Z" fill="#FFBA49"/>
<path fill-rule="evenodd" clip-rule="evenodd" d="M41.4802 7.10962L39.889 7.94544C39.5221 8.13813 39.0936 7.82659 39.1637 7.41819L39.4674 5.64856L38.181 4.3957C37.884 4.10647 38.0478 3.60225 38.458 3.54269L40.2363 3.28452L41.0319 1.67376C41.2154 1.30235 41.745 1.30235 41.9285 1.67376L42.7242 3.28452L44.5024 3.54269C44.9126 3.60225 45.0764 4.10647 44.7794 4.3957L43.493 5.64856L43.7967 7.41819C43.8668 7.82658 43.4383 8.13813 43.0714 7.94544L41.4802 7.10962Z" fill="#FFBA49"/>
</svg>
