<svg width="111" height="137" viewBox="0 0 111 137" fill="none" xmlns="http://www.w3.org/2000/svg">
<path d="M108.72 14.4213V25.6533H100.262V14.4213H108.72ZM110.107 13.0347H98.8751V27.04H110.107V13.0347Z" fill="#CF4C8B" fill-opacity="0.92"/>
<path d="M108.72 27.04V38.272H100.262V27.04H108.72ZM110.107 25.6533H98.8751V39.6587H110.107V25.6533Z" fill="#CF4C8B" fill-opacity="0.92"/>
<path d="M108.72 39.6587V50.8907H100.262V39.6587H108.72ZM110.107 38.272H98.8751V52.2773H110.107V38.272Z" fill="#CF4C8B" fill-opacity="0.92"/>
<path d="M108.72 52.2774V63.5093H100.262V52.2774H108.72ZM110.107 50.8907H98.8751V64.896H110.107V50.8907Z" fill="#CF4C8B" fill-opacity="0.92"/>
<path d="M108.72 64.896V76.128H100.262V64.896H108.72ZM110.107 63.5094H98.8751V77.5147H110.107V63.5094Z" fill="#CF4C8B" fill-opacity="0.92"/>
<path d="M108.72 77.5147V88.7467H100.262V77.5147H108.72ZM110.107 76.128H98.8751V90.1334H110.107V76.128Z" fill="#CF4C8B" fill-opacity="0.92"/>
<path d="M108.72 90.1334V101.365H100.262V90.1334H108.72ZM110.107 88.7467H98.8751V102.752H110.107V88.7467Z" fill="#CF4C8B" fill-opacity="0.92"/>
<path d="M108.72 102.752V113.984H100.262V102.752H108.72ZM110.107 101.365H98.8751V115.371H110.107V101.365Z" fill="#CF4C8B" fill-opacity="0.92"/>
<path d="M96.3098 6.93333C97.4885 6.93333 98.3898 7.83466 98.3898 9.01333V127.643C98.3898 128.821 97.4885 129.723 96.3098 129.723H12.7631C11.5844 129.723 10.6831 128.821 10.6831 127.643V9.01333C10.6831 7.83466 11.5844 6.93333 12.7631 6.93333H96.3098ZM96.3098 5.54666H12.7631C10.8911 5.54666 9.29645 7.07199 9.29645 9.01333V127.643C9.29645 129.584 10.8218 131.109 12.7631 131.109H96.3098C98.2511 131.109 99.7765 129.584 99.7765 127.643V9.01333C99.7765 7.14133 98.1818 5.54666 96.3098 5.54666Z" fill="#CF4C8B" fill-opacity="0.92"/>
<path d="M27.7391 26.0693H83.6911V110.656H27.7391" stroke="#CF4C8B" stroke-opacity="0.92" stroke-width="2" stroke-miterlimit="10" stroke-linecap="round" stroke-linejoin="round"/>
<path d="M55.6804 40.0053C63.7924 40.0053 70.3791 46.592 70.3791 54.704V73.4933C70.3791 74.5333 69.5471 75.296 68.5764 75.296C67.5364 75.296 66.7738 74.464 66.7738 73.4933C66.7738 70.928 64.6938 68.9173 62.1978 68.9173C59.6324 68.9173 57.6218 70.9973 57.6218 73.4933C57.6218 74.5333 56.7898 75.296 55.8191 75.296C54.8484 75.296 54.0164 74.464 54.0164 73.4933C54.0164 70.928 51.9364 68.9173 49.4404 68.9173C46.8751 68.9173 44.8644 70.9973 44.8644 73.4933C44.8644 74.5333 44.0324 75.296 43.0618 75.296C42.0218 75.296 41.2591 74.464 41.2591 73.4933V54.6347C40.9818 46.592 47.5684 40.0053 55.6804 40.0053ZM55.6804 38.6187C46.8058 38.6187 39.5951 45.8293 39.5951 54.704V73.4933C39.5951 75.296 41.0511 76.6827 42.7844 76.6827C44.5871 76.6827 45.9738 75.2267 45.9738 73.4933C45.9738 71.76 47.4298 70.304 49.1631 70.304C50.9658 70.304 52.3524 71.76 52.3524 73.4933C52.3524 75.2267 53.8084 76.6827 55.5418 76.6827C57.2751 76.6827 58.7311 75.2267 58.7311 73.4933C58.7311 71.76 60.1871 70.304 61.9204 70.304C63.6538 70.304 65.1098 71.76 65.1098 73.4933C65.1098 75.2267 66.5658 76.6827 68.2991 76.6827C70.1018 76.6827 71.4884 75.2267 71.4884 73.4933V54.6347C71.7658 45.76 64.5551 38.6187 55.6804 38.6187Z" fill="#CF4C8B" fill-opacity="0.92"/>
<path d="M49.2325 52.2773C50.2725 52.2773 51.0351 53.1093 51.0351 54.08C51.0351 55.0507 50.2031 55.8827 49.2325 55.8827C48.1925 55.8827 47.4298 55.0507 47.4298 54.08C47.4298 53.1093 48.2618 52.2773 49.2325 52.2773ZM49.2325 50.8907C47.4298 50.8907 46.0431 52.3467 46.0431 54.08C46.0431 55.8133 47.4991 57.2693 49.2325 57.2693C51.0351 57.2693 52.4218 55.8133 52.4218 54.08C52.4218 52.3467 51.0351 50.8907 49.2325 50.8907Z" fill="#CF4C8B" fill-opacity="0.92"/>
<path d="M62.1285 52.2773C63.1685 52.2773 63.9311 53.1093 63.9311 54.08C63.9311 55.0507 63.0991 55.8827 62.1285 55.8827C61.0885 55.8827 60.3258 55.0507 60.3258 54.08C60.3258 53.1093 61.0885 52.2773 62.1285 52.2773ZM62.1285 50.8907C60.3258 50.8907 58.9391 52.3467 58.9391 54.08C58.9391 55.8133 60.3951 57.2693 62.1285 57.2693C63.8618 57.2693 65.3178 55.8133 65.3178 54.08C65.3178 52.3467 63.8618 50.8907 62.1285 50.8907Z" fill="#CF4C8B" fill-opacity="0.92"/>
<path d="M7.56311 33.7653C3.95778 33.7653 1.11511 30.8533 1.11511 27.3173C1.11511 23.7813 4.02711 20.8693 7.56311 20.8693C11.0991 20.8693 14.0111 23.7813 14.0111 27.3173" stroke="#CF4C8B" stroke-opacity="0.92" stroke-width="2" stroke-miterlimit="10" stroke-linecap="round" stroke-linejoin="round"/>
<path d="M7.56311 53.3173C3.95778 53.3173 1.11511 50.4053 1.11511 46.8693C1.11511 43.3333 4.02711 40.4213 7.56311 40.4213C11.0991 40.4213 14.0111 43.3333 14.0111 46.8693" stroke="#CF4C8B" stroke-opacity="0.92" stroke-width="2" stroke-miterlimit="10" stroke-linecap="round" stroke-linejoin="round"/>
<path d="M7.56311 72.8693C3.95778 72.8693 1.11511 69.9573 1.11511 66.4213C1.11511 62.8853 4.02711 59.9733 7.56311 59.9733C11.0991 59.9733 14.0111 62.8853 14.0111 66.4213" stroke="#CF4C8B" stroke-opacity="0.92" stroke-width="2" stroke-miterlimit="10" stroke-linecap="round" stroke-linejoin="round"/>
<path d="M7.56311 92.352C3.95778 92.352 1.11511 89.44 1.11511 85.904C1.11511 82.368 4.02711 79.456 7.56311 79.456C11.0991 79.456 14.0111 82.368 14.0111 85.904" stroke="#CF4C8B" stroke-opacity="0.92" stroke-width="2" stroke-miterlimit="10" stroke-linecap="round" stroke-linejoin="round"/>
<path d="M7.56311 111.904C3.95778 111.904 1.11511 108.992 1.11511 105.456C1.11511 101.92 4.02711 99.008 7.56311 99.008C11.0991 99.008 14.0111 101.92 14.0111 105.456" stroke="#CF4C8B" stroke-opacity="0.92" stroke-width="2" stroke-miterlimit="10" stroke-linecap="round" stroke-linejoin="round"/>
<path d="M24.6192 1.38667C25.7285 1.38667 26.6298 2.288 26.6298 3.39733V132.704C26.6298 133.813 25.7285 134.715 24.6192 134.715C23.5098 134.715 22.6085 133.813 22.6085 132.704V3.39733C22.5392 2.288 23.5098 1.38667 24.6192 1.38667ZM24.6192 0C22.7472 0 21.2218 1.52533 21.2218 3.39733V132.704C21.2218 134.576 22.7472 136.101 24.6192 136.101C26.4912 136.101 28.0165 134.576 28.0165 132.704V3.39733C28.0165 1.52533 26.4912 0 24.6192 0Z" fill="#CF4C8B" fill-opacity="0.92"/>
<path d="M39.6645 87.6373H58.9391" stroke="#CF4C8B" stroke-opacity="0.92" stroke-width="2" stroke-miterlimit="10" stroke-linecap="round" stroke-linejoin="round"/>
<path d="M39.6645 94.5013H71.5578" stroke="#CF4C8B" stroke-opacity="0.92" stroke-width="2" stroke-miterlimit="10" stroke-linecap="round" stroke-linejoin="round"/>
</svg>
