<svg width="63" height="49" viewBox="0 0 63 49" fill="none" xmlns="http://www.w3.org/2000/svg">
<path d="M50.9311 2.18133L60.2911 31.232L11.9658 46.832L2.60577 17.7813L50.9311 2.18133ZM51.8324 0.447998L0.872437 16.88L11.0644 48.5653L62.0244 32.1333L51.8324 0.447998Z" fill="#CF4C8B" fill-opacity="0.92"/>
<path d="M47.3951 7.38133C48.2964 7.38133 49.1284 8.00533 49.4058 8.83733L53.8431 22.6347C54.1898 23.744 53.5658 24.9227 52.5258 25.2693L14.3924 37.6107C14.1844 37.68 13.9764 37.68 13.7684 37.68C12.8671 37.68 12.0351 37.056 11.7578 36.224L7.32044 22.4267C7.18178 21.872 7.18177 21.3173 7.45911 20.832C7.73644 20.3467 8.15245 20 8.63778 19.792L46.7711 7.45066C46.9791 7.38133 47.1871 7.38133 47.3951 7.38133ZM47.3951 5.99466C47.0484 5.99466 46.7018 6.06399 46.3551 6.13332L8.22178 18.4747C6.41911 19.0293 5.37911 21.04 6.00311 22.8427L10.4404 36.64C10.9258 38.096 12.3124 39.0667 13.7684 39.0667C14.1151 39.0667 14.4618 38.9973 14.8084 38.928L52.9418 26.5867C54.7444 26.032 55.7844 24.0213 55.1604 22.2187L50.7231 8.42133C50.2378 6.89599 48.9204 5.99466 47.3951 5.99466Z" fill="#CF4C8B" fill-opacity="0.92"/>
<path d="M29.0912 17.8507L46.3552 12.2347" stroke="#CF4C8B" stroke-opacity="0.92" stroke-width="2" stroke-miterlimit="10" stroke-linecap="round" stroke-linejoin="round"/>
<path d="M30.6164 21.7333L47.8804 16.1867" stroke="#CF4C8B" stroke-opacity="0.92" stroke-width="2" stroke-miterlimit="10" stroke-linecap="round" stroke-linejoin="round"/>
<path d="M31.8644 25.7547L49.1284 20.1387" stroke="#CF4C8B" stroke-opacity="0.92" stroke-width="2" stroke-miterlimit="10" stroke-linecap="round" stroke-linejoin="round"/>
<path d="M12.8671 31.3707L13.7684 34.0053L16.8884 33.0347" stroke="#CF4C8B" stroke-opacity="0.92" stroke-width="2" stroke-miterlimit="10" stroke-linecap="round" stroke-linejoin="round"/>
<path d="M25.2778 27.3493L26.1791 30.0533L23.0591 31.024" stroke="#CF4C8B" stroke-opacity="0.92" stroke-width="2" stroke-miterlimit="10" stroke-linecap="round" stroke-linejoin="round"/>
<path d="M17.7898 25.3386C19.8698 26.24 20.4245 27.4187 20.4245 27.5573L21.6725 31.5093L18.1365 32.688L16.8191 28.6667C16.6111 27.7653 17.2351 26.3093 17.7898 25.3386ZM17.2351 23.6053C17.2351 23.6053 14.8778 26.7947 15.5711 29.0133C16.2645 31.232 17.3045 34.352 17.3045 34.352L23.4751 32.3413L21.7418 27.0027C21.7418 27.072 21.0485 24.8533 17.2351 23.6053Z" fill="#CF4C8B" fill-opacity="0.92"/>
<path d="M11.8964 28.2507L11.4804 26.9333" stroke="#CF4C8B" stroke-opacity="0.92" stroke-width="2" stroke-miterlimit="10" stroke-linecap="round" stroke-linejoin="round"/>
<path d="M10.5098 24.0907L10.0938 22.7733" stroke="#CF4C8B" stroke-opacity="0.92" stroke-width="2" stroke-miterlimit="10" stroke-linecap="round" stroke-linejoin="round"/>
<path d="M24.3071 24.2987L23.8911 22.912" stroke="#CF4C8B" stroke-opacity="0.92" stroke-width="2" stroke-miterlimit="10" stroke-linecap="round" stroke-linejoin="round"/>
<path d="M22.9204 20.0693L22.5044 18.752" stroke="#CF4C8B" stroke-opacity="0.92" stroke-width="2" stroke-miterlimit="10" stroke-linecap="round" stroke-linejoin="round"/>
</svg>
