<svg width="61" height="46" viewBox="0 0 61 46" fill="none" xmlns="http://www.w3.org/2000/svg">
<path d="M9.30979 2.59734L58.6058 14.6613L51.3258 44.336L2.02979 32.2027L9.30979 2.59734ZM8.33911 0.933334L0.43512 33.2427L52.4351 46L60.3391 13.6907L8.33911 0.933334Z" fill="#CF4C8B" fill-opacity="0.92"/>
<path d="M12.9152 7.38133C13.0538 7.38133 13.2618 7.38134 13.4005 7.45067L52.3658 17.0187C52.9205 17.1573 53.3365 17.504 53.6138 17.9893C53.8912 18.4747 53.9605 19.0293 53.8912 19.584L50.4245 33.6587C50.2165 34.56 49.3152 35.2533 48.4138 35.2533C48.2752 35.2533 48.0672 35.2533 47.9285 35.184L8.96316 25.616C7.85382 25.3387 7.16049 24.2293 7.43783 23.12L10.9045 9.04534C11.1125 8.00534 11.9445 7.38133 12.9152 7.38133ZM12.9152 5.99467C11.3898 5.99467 9.93383 7.03467 9.51783 8.62934L6.05116 22.704C5.56583 24.576 6.74449 26.448 8.61649 26.864L47.5818 36.432C47.8592 36.5013 48.1365 36.5013 48.4138 36.5013C49.9392 36.5013 51.3952 35.4613 51.8112 33.8667L55.2778 19.792C55.7632 17.92 54.5845 16.048 52.7125 15.632L13.7472 6.064C13.4698 5.99467 13.1925 5.99467 12.9152 5.99467Z" fill="#CF4C8B" fill-opacity="0.92"/>
<path d="M31.8432 16.464L49.4539 20.832" stroke="#CF4C8B" stroke-opacity="0.92" stroke-width="2" stroke-miterlimit="10" stroke-linecap="round" stroke-linejoin="round"/>
<path d="M31.0112 20.624L48.6912 24.9227" stroke="#CF4C8B" stroke-opacity="0.92" stroke-width="2" stroke-miterlimit="10" stroke-linecap="round" stroke-linejoin="round"/>
<path d="M30.0405 24.7147L47.6512 29.0133" stroke="#CF4C8B" stroke-opacity="0.92" stroke-width="2" stroke-miterlimit="10" stroke-linecap="round" stroke-linejoin="round"/>
<path d="M19.4325 14.1067C20.7499 14.1067 21.9979 14.6613 22.8992 15.5627L19.0165 17.92C18.6699 18.128 18.4619 18.4053 18.3925 18.752C18.3232 19.0987 18.3925 19.5147 18.5312 19.792L20.8885 23.6747C20.4032 23.8133 19.9179 23.8827 19.4325 23.8827C17.6992 23.8827 16.1045 22.9813 15.2032 21.5253C13.8165 19.2373 14.5099 16.1867 16.8672 14.8C17.6992 14.3147 18.5312 14.1067 19.4325 14.1067ZM19.4325 12.72C18.3232 12.72 17.2139 12.9973 16.1739 13.6213C13.1925 15.424 12.2912 19.3067 14.0245 22.288C15.2032 24.2293 17.2832 25.3387 19.4325 25.3387C20.5419 25.3387 21.6512 25.0613 22.6912 24.4373C22.7605 24.368 22.8299 24.368 22.8992 24.2987L19.7792 19.0987L24.9792 15.9787C24.9099 15.9093 24.9099 15.84 24.8405 15.7707C23.6619 13.76 21.5819 12.72 19.4325 12.72Z" fill="#CF4C8B" fill-opacity="0.92"/>
<path d="M25.3258 19.2374C24.7711 19.2374 24.3551 19.584 24.2165 20.1387C24.0778 20.7627 24.4245 21.3867 25.0485 21.5254C25.1178 21.5254 25.2565 21.5254 25.3258 21.5254C25.8805 21.5254 26.2965 21.1787 26.4351 20.624C26.5738 20 26.2271 19.376 25.6031 19.2374C25.5338 19.2374 25.3951 19.2374 25.3258 19.2374Z" fill="#CF4C8B" fill-opacity="0.92"/>
</svg>
