<svg width="24" height="24" viewBox="0 0 24 24" fill="none" xmlns="http://www.w3.org/2000/svg">
<g clip-path="url(#clip0_41_0)">
<path d="M6.477 13.5C5.20968 14.1147 4.14107 15.0738 3.39351 16.2676C2.64595 17.4613 2.24965 18.8415 2.25 20.25V20.25C2.25 20.25 5.25 23.25 12 23.25C18.75 23.25 21.75 20.25 21.75 20.25C21.7502 18.8413 21.3537 17.4611 20.6059 16.2673C19.858 15.0735 18.7891 14.1145 17.5215 13.5" stroke="#99E6FC" stroke-width="2.5" stroke-linecap="round" stroke-linejoin="round"/>
<path d="M17.25 6C17.25 8.8995 14.8995 12.75 12 12.75C9.1005 12.75 6.75 8.8995 6.75 6C6.75 4.60761 7.30312 3.27226 8.28769 2.28769C9.27226 1.30312 10.6076 0.75 12 0.75C13.3924 0.75 14.7277 1.30312 15.7123 2.28769C16.6969 3.27226 17.25 4.60761 17.25 6V6Z" stroke="#99E6FC" stroke-width="2.5" stroke-linecap="round" stroke-linejoin="round"/>
</g>
<defs>
<clipPath id="clip0_41_0">
<rect width="24" height="24" fill="white"/>
</clipPath>
</defs>
</svg>
